<mxfile host="65bd71144e">
    <diagram id="gHYuYI9v-aE8IaKOsQzH" name="第 1 页">
        <mxGraphModel dx="565" dy="563" grid="1" gridSize="10" guides="1" tooltips="1" connect="1" arrows="1" fold="1" page="1" pageScale="1" pageWidth="827" pageHeight="1169" math="0" shadow="0">
            <root>
                <mxCell id="0"/>
                <mxCell id="1" parent="0"/>
                <mxCell id="40" value="" style="group" parent="1" vertex="1" connectable="0">
                    <mxGeometry x="40" y="360" width="540" height="130" as="geometry"/>
                </mxCell>
                <mxCell id="31" value="Read Image" style="rounded=1;whiteSpace=wrap;html=1;fillColor=#d5e8d4;strokeColor=#82b366;" parent="40" vertex="1">
                    <mxGeometry width="160" height="50" as="geometry"/>
                </mxCell>
                <mxCell id="32" value="Good Features To Track&lt;br&gt;LK Optical Flow" style="rounded=1;whiteSpace=wrap;html=1;fillColor=#f8cecc;strokeColor=#b85450;" parent="40" vertex="1">
                    <mxGeometry x="180" width="160" height="50" as="geometry"/>
                </mxCell>
                <mxCell id="36" style="edgeStyle=none;html=1;exitX=1;exitY=0.5;exitDx=0;exitDy=0;" parent="40" source="31" target="32" edge="1">
                    <mxGeometry relative="1" as="geometry"/>
                </mxCell>
                <mxCell id="33" value="Affine Transform Esitimation&lt;br&gt;Kalman Filter" style="rounded=1;whiteSpace=wrap;html=1;fillColor=#fff2cc;strokeColor=#d6b656;" parent="40" vertex="1">
                    <mxGeometry x="360" width="160" height="50" as="geometry"/>
                </mxCell>
                <mxCell id="37" style="edgeStyle=none;html=1;exitX=1;exitY=0.5;exitDx=0;exitDy=0;" parent="40" source="32" target="33" edge="1">
                    <mxGeometry relative="1" as="geometry"/>
                </mxCell>
                <mxCell id="34" value="Apply Filtered Affine Transform" style="rounded=1;whiteSpace=wrap;html=1;fillColor=#ffe6cc;strokeColor=#d79b00;" parent="40" vertex="1">
                    <mxGeometry x="90" y="80" width="160" height="50" as="geometry"/>
                </mxCell>
                <mxCell id="38" style="edgeStyle=orthogonalEdgeStyle;html=1;entryX=0;entryY=0.5;entryDx=0;entryDy=0;exitX=1;exitY=0.5;exitDx=0;exitDy=0;" parent="40" source="33" target="34" edge="1">
                    <mxGeometry relative="1" as="geometry">
                        <mxPoint x="520" y="70" as="sourcePoint"/>
                        <Array as="points">
                            <mxPoint x="540" y="25"/>
                            <mxPoint x="540" y="65"/>
                            <mxPoint x="70" y="65"/>
                            <mxPoint x="70" y="105"/>
                        </Array>
                    </mxGeometry>
                </mxCell>
                <mxCell id="35" value="Write Result" style="rounded=1;whiteSpace=wrap;html=1;fillColor=#e1d5e7;strokeColor=#9673a6;" parent="40" vertex="1">
                    <mxGeometry x="270" y="80" width="160" height="50" as="geometry"/>
                </mxCell>
                <mxCell id="39" style="edgeStyle=orthogonalEdgeStyle;html=1;exitX=1;exitY=0.5;exitDx=0;exitDy=0;entryX=0;entryY=0.5;entryDx=0;entryDy=0;" parent="40" source="34" target="35" edge="1">
                    <mxGeometry relative="1" as="geometry"/>
                </mxCell>
                <mxCell id="YH2vRWu-AooAJuFzvjX3-125" value="" style="group" parent="1" vertex="1" connectable="0">
                    <mxGeometry x="40" y="40" width="650" height="270" as="geometry"/>
                </mxCell>
                <mxCell id="YH2vRWu-AooAJuFzvjX3-124" value="" style="group" parent="YH2vRWu-AooAJuFzvjX3-125" vertex="1" connectable="0">
                    <mxGeometry width="650" height="240" as="geometry"/>
                </mxCell>
                <mxCell id="YH2vRWu-AooAJuFzvjX3-122" value="" style="rounded=1;whiteSpace=wrap;html=1;arcSize=4;fillColor=#f5f5f5;fontColor=#333333;strokeColor=none;" parent="YH2vRWu-AooAJuFzvjX3-124" vertex="1">
                    <mxGeometry width="90" height="240" as="geometry"/>
                </mxCell>
                <mxCell id="YH2vRWu-AooAJuFzvjX3-92" value="Basic version" style="text;html=1;strokeColor=none;fillColor=none;align=center;verticalAlign=middle;whiteSpace=wrap;rounded=0;" parent="YH2vRWu-AooAJuFzvjX3-124" vertex="1">
                    <mxGeometry x="5" y="40" width="80" height="20" as="geometry"/>
                </mxCell>
                <mxCell id="YH2vRWu-AooAJuFzvjX3-94" value="Boost version" style="text;html=1;strokeColor=none;fillColor=none;align=center;verticalAlign=middle;whiteSpace=wrap;rounded=0;" parent="YH2vRWu-AooAJuFzvjX3-124" vertex="1">
                    <mxGeometry x="5" y="150" width="80" height="20" as="geometry"/>
                </mxCell>
                <mxCell id="YH2vRWu-AooAJuFzvjX3-111" value="" style="group" parent="YH2vRWu-AooAJuFzvjX3-124" vertex="1" connectable="0">
                    <mxGeometry x="100" y="30" width="550" height="40" as="geometry"/>
                </mxCell>
                <mxCell id="YH2vRWu-AooAJuFzvjX3-91" value="" style="rounded=1;whiteSpace=wrap;html=1;arcSize=4;fillColor=#f5f5f5;fontColor=#333333;strokeColor=none;" parent="YH2vRWu-AooAJuFzvjX3-111" vertex="1">
                    <mxGeometry width="550" height="40" as="geometry"/>
                </mxCell>
                <mxCell id="YH2vRWu-AooAJuFzvjX3-84" value="" style="group" parent="YH2vRWu-AooAJuFzvjX3-111" vertex="1" connectable="0">
                    <mxGeometry x="10" y="10" width="530" height="20" as="geometry"/>
                </mxCell>
                <mxCell id="2" value="" style="rounded=1;whiteSpace=wrap;html=1;fillColor=#d5e8d4;strokeColor=#82b366;" parent="YH2vRWu-AooAJuFzvjX3-84" vertex="1">
                    <mxGeometry width="80" height="20" as="geometry"/>
                </mxCell>
                <mxCell id="3" value="" style="rounded=1;whiteSpace=wrap;html=1;fillColor=#f8cecc;strokeColor=#b85450;" parent="YH2vRWu-AooAJuFzvjX3-84" vertex="1">
                    <mxGeometry x="90" width="80" height="20" as="geometry"/>
                </mxCell>
                <mxCell id="4" value="" style="rounded=1;whiteSpace=wrap;html=1;fillColor=#fff2cc;strokeColor=#d6b656;" parent="YH2vRWu-AooAJuFzvjX3-84" vertex="1">
                    <mxGeometry x="180" width="80" height="20" as="geometry"/>
                </mxCell>
                <mxCell id="5" value="" style="rounded=1;whiteSpace=wrap;html=1;fillColor=#ffe6cc;strokeColor=#d79b00;" parent="YH2vRWu-AooAJuFzvjX3-84" vertex="1">
                    <mxGeometry x="270" width="80" height="20" as="geometry"/>
                </mxCell>
                <mxCell id="6" value="" style="rounded=1;whiteSpace=wrap;html=1;fillColor=#e1d5e7;strokeColor=#9673a6;" parent="YH2vRWu-AooAJuFzvjX3-84" vertex="1">
                    <mxGeometry x="360" width="80" height="20" as="geometry"/>
                </mxCell>
                <mxCell id="7" value="" style="rounded=1;whiteSpace=wrap;html=1;fillColor=#d5e8d4;strokeColor=#82b366;" parent="YH2vRWu-AooAJuFzvjX3-84" vertex="1">
                    <mxGeometry x="450" width="80" height="20" as="geometry"/>
                </mxCell>
                <mxCell id="YH2vRWu-AooAJuFzvjX3-112" value="" style="group" parent="YH2vRWu-AooAJuFzvjX3-124" vertex="1" connectable="0">
                    <mxGeometry x="100" y="80" width="550" height="160" as="geometry"/>
                </mxCell>
                <mxCell id="YH2vRWu-AooAJuFzvjX3-93" value="" style="rounded=1;whiteSpace=wrap;html=1;arcSize=1;fillColor=#f5f5f5;fontColor=#333333;strokeColor=none;" parent="YH2vRWu-AooAJuFzvjX3-112" vertex="1">
                    <mxGeometry width="550" height="160" as="geometry"/>
                </mxCell>
                <mxCell id="10" value="" style="rounded=1;whiteSpace=wrap;html=1;fillColor=#d5e8d4;strokeColor=#82b366;" parent="YH2vRWu-AooAJuFzvjX3-112" vertex="1">
                    <mxGeometry x="10" y="10" width="80" height="20" as="geometry"/>
                </mxCell>
                <mxCell id="11" value="" style="rounded=1;whiteSpace=wrap;html=1;fillColor=#d5e8d4;strokeColor=#82b366;" parent="YH2vRWu-AooAJuFzvjX3-112" vertex="1">
                    <mxGeometry x="100" y="10" width="80" height="20" as="geometry"/>
                </mxCell>
                <mxCell id="12" value="" style="rounded=1;whiteSpace=wrap;html=1;fillColor=#d5e8d4;strokeColor=#82b366;" parent="YH2vRWu-AooAJuFzvjX3-112" vertex="1">
                    <mxGeometry x="190" y="10" width="80" height="20" as="geometry"/>
                </mxCell>
                <mxCell id="14" value="" style="rounded=1;whiteSpace=wrap;html=1;fillColor=#f8cecc;strokeColor=#b85450;" parent="YH2vRWu-AooAJuFzvjX3-112" vertex="1">
                    <mxGeometry x="100" y="40" width="80" height="20" as="geometry"/>
                </mxCell>
                <mxCell id="15" value="" style="rounded=1;whiteSpace=wrap;html=1;fillColor=#f8cecc;strokeColor=#b85450;" parent="YH2vRWu-AooAJuFzvjX3-112" vertex="1">
                    <mxGeometry x="190" y="40" width="80" height="20" as="geometry"/>
                </mxCell>
                <mxCell id="16" value="" style="rounded=1;whiteSpace=wrap;html=1;fillColor=#f8cecc;strokeColor=#b85450;" parent="YH2vRWu-AooAJuFzvjX3-112" vertex="1">
                    <mxGeometry x="280" y="40" width="80" height="20" as="geometry"/>
                </mxCell>
                <mxCell id="17" value="" style="rounded=1;whiteSpace=wrap;html=1;fillColor=#fff2cc;strokeColor=#d6b656;" parent="YH2vRWu-AooAJuFzvjX3-112" vertex="1">
                    <mxGeometry x="190" y="70" width="80" height="20" as="geometry"/>
                </mxCell>
                <mxCell id="18" value="" style="rounded=1;whiteSpace=wrap;html=1;fillColor=#fff2cc;strokeColor=#d6b656;" parent="YH2vRWu-AooAJuFzvjX3-112" vertex="1">
                    <mxGeometry x="280" y="70" width="80" height="20" as="geometry"/>
                </mxCell>
                <mxCell id="19" value="" style="rounded=1;whiteSpace=wrap;html=1;fillColor=#fff2cc;strokeColor=#d6b656;" parent="YH2vRWu-AooAJuFzvjX3-112" vertex="1">
                    <mxGeometry x="370" y="70" width="80" height="20" as="geometry"/>
                </mxCell>
                <mxCell id="20" value="" style="rounded=1;whiteSpace=wrap;html=1;fillColor=#ffe6cc;strokeColor=#d79b00;" parent="YH2vRWu-AooAJuFzvjX3-112" vertex="1">
                    <mxGeometry x="280" y="100" width="80" height="20" as="geometry"/>
                </mxCell>
                <mxCell id="21" value="" style="rounded=1;whiteSpace=wrap;html=1;fillColor=#ffe6cc;strokeColor=#d79b00;" parent="YH2vRWu-AooAJuFzvjX3-112" vertex="1">
                    <mxGeometry x="370" y="100" width="80" height="20" as="geometry"/>
                </mxCell>
                <mxCell id="22" value="" style="rounded=1;whiteSpace=wrap;html=1;fillColor=#ffe6cc;strokeColor=#d79b00;" parent="YH2vRWu-AooAJuFzvjX3-112" vertex="1">
                    <mxGeometry x="460" y="100" width="80" height="20" as="geometry"/>
                </mxCell>
                <mxCell id="23" value="" style="rounded=1;whiteSpace=wrap;html=1;fillColor=#e1d5e7;strokeColor=#9673a6;" parent="YH2vRWu-AooAJuFzvjX3-112" vertex="1">
                    <mxGeometry x="370" y="130" width="80" height="20" as="geometry"/>
                </mxCell>
                <mxCell id="24" value="" style="rounded=1;whiteSpace=wrap;html=1;fillColor=#e1d5e7;strokeColor=#9673a6;" parent="YH2vRWu-AooAJuFzvjX3-112" vertex="1">
                    <mxGeometry x="460" y="130" width="80" height="20" as="geometry"/>
                </mxCell>
                <mxCell id="YH2vRWu-AooAJuFzvjX3-85" value="" style="rounded=1;whiteSpace=wrap;html=1;fillColor=#d5e8d4;strokeColor=#82b366;" parent="YH2vRWu-AooAJuFzvjX3-112" vertex="1">
                    <mxGeometry x="280" y="10" width="80" height="20" as="geometry"/>
                </mxCell>
                <mxCell id="YH2vRWu-AooAJuFzvjX3-86" value="" style="rounded=1;whiteSpace=wrap;html=1;fillColor=#d5e8d4;strokeColor=#82b366;" parent="YH2vRWu-AooAJuFzvjX3-112" vertex="1">
                    <mxGeometry x="370" y="10" width="80" height="20" as="geometry"/>
                </mxCell>
                <mxCell id="YH2vRWu-AooAJuFzvjX3-87" value="" style="rounded=1;whiteSpace=wrap;html=1;fillColor=#d5e8d4;strokeColor=#82b366;" parent="YH2vRWu-AooAJuFzvjX3-112" vertex="1">
                    <mxGeometry x="460" y="10" width="80" height="20" as="geometry"/>
                </mxCell>
                <mxCell id="YH2vRWu-AooAJuFzvjX3-88" value="" style="rounded=1;whiteSpace=wrap;html=1;fillColor=#f8cecc;strokeColor=#b85450;" parent="YH2vRWu-AooAJuFzvjX3-112" vertex="1">
                    <mxGeometry x="370" y="40" width="80" height="20" as="geometry"/>
                </mxCell>
                <mxCell id="YH2vRWu-AooAJuFzvjX3-89" value="" style="rounded=1;whiteSpace=wrap;html=1;fillColor=#f8cecc;strokeColor=#b85450;" parent="YH2vRWu-AooAJuFzvjX3-112" vertex="1">
                    <mxGeometry x="460" y="40" width="80" height="20" as="geometry"/>
                </mxCell>
                <mxCell id="YH2vRWu-AooAJuFzvjX3-90" value="" style="rounded=1;whiteSpace=wrap;html=1;fillColor=#fff2cc;strokeColor=#d6b656;" parent="YH2vRWu-AooAJuFzvjX3-112" vertex="1">
                    <mxGeometry x="460" y="70" width="80" height="20" as="geometry"/>
                </mxCell>
                <mxCell id="YH2vRWu-AooAJuFzvjX3-108" value="" style="rounded=1;whiteSpace=wrap;html=1;arcSize=4;fillColor=#f5f5f5;fontColor=#333333;strokeColor=none;" parent="YH2vRWu-AooAJuFzvjX3-124" vertex="1">
                    <mxGeometry x="100" width="550" height="20" as="geometry"/>
                </mxCell>
                <mxCell id="YH2vRWu-AooAJuFzvjX3-102" value="F1" style="text;html=1;strokeColor=none;fillColor=none;align=center;verticalAlign=middle;whiteSpace=wrap;rounded=0;" parent="YH2vRWu-AooAJuFzvjX3-124" vertex="1">
                    <mxGeometry x="120" width="60" height="20" as="geometry"/>
                </mxCell>
                <mxCell id="YH2vRWu-AooAJuFzvjX3-103" value="F2" style="text;html=1;strokeColor=none;fillColor=none;align=center;verticalAlign=middle;whiteSpace=wrap;rounded=0;" parent="YH2vRWu-AooAJuFzvjX3-124" vertex="1">
                    <mxGeometry x="210" width="60" height="20" as="geometry"/>
                </mxCell>
                <mxCell id="YH2vRWu-AooAJuFzvjX3-104" value="F3" style="text;html=1;strokeColor=none;fillColor=none;align=center;verticalAlign=middle;whiteSpace=wrap;rounded=0;" parent="YH2vRWu-AooAJuFzvjX3-124" vertex="1">
                    <mxGeometry x="300" width="60" height="20" as="geometry"/>
                </mxCell>
                <mxCell id="YH2vRWu-AooAJuFzvjX3-105" value="F4" style="text;html=1;strokeColor=none;fillColor=none;align=center;verticalAlign=middle;whiteSpace=wrap;rounded=0;" parent="YH2vRWu-AooAJuFzvjX3-124" vertex="1">
                    <mxGeometry x="390" width="60" height="20" as="geometry"/>
                </mxCell>
                <mxCell id="YH2vRWu-AooAJuFzvjX3-106" value="F5" style="text;html=1;strokeColor=none;fillColor=none;align=center;verticalAlign=middle;whiteSpace=wrap;rounded=0;" parent="YH2vRWu-AooAJuFzvjX3-124" vertex="1">
                    <mxGeometry x="480" width="60" height="20" as="geometry"/>
                </mxCell>
                <mxCell id="YH2vRWu-AooAJuFzvjX3-107" value="F6" style="text;html=1;strokeColor=none;fillColor=none;align=center;verticalAlign=middle;whiteSpace=wrap;rounded=0;" parent="YH2vRWu-AooAJuFzvjX3-124" vertex="1">
                    <mxGeometry x="570" width="60" height="20" as="geometry"/>
                </mxCell>
                <mxCell id="YH2vRWu-AooAJuFzvjX3-109" style="edgeStyle=orthogonalEdgeStyle;rounded=0;orthogonalLoop=1;jettySize=auto;html=1;exitX=0.5;exitY=1;exitDx=0;exitDy=0;" parent="YH2vRWu-AooAJuFzvjX3-124" source="YH2vRWu-AooAJuFzvjX3-108" target="YH2vRWu-AooAJuFzvjX3-108" edge="1">
                    <mxGeometry relative="1" as="geometry"/>
                </mxCell>
                <mxCell id="YH2vRWu-AooAJuFzvjX3-123" value="Frame index" style="text;html=1;strokeColor=none;fillColor=none;align=center;verticalAlign=middle;whiteSpace=wrap;rounded=0;" parent="YH2vRWu-AooAJuFzvjX3-124" vertex="1">
                    <mxGeometry x="5" width="80" height="20" as="geometry"/>
                </mxCell>
                <mxCell id="YH2vRWu-AooAJuFzvjX3-41" value="" style="rounded=1;whiteSpace=wrap;html=1;fillColor=#d5e8d4;strokeColor=#82b366;" parent="YH2vRWu-AooAJuFzvjX3-125" vertex="1">
                    <mxGeometry x="200" y="250" width="80" height="20" as="geometry"/>
                </mxCell>
                <mxCell id="YH2vRWu-AooAJuFzvjX3-78" value="&lt;font style=&quot;font-size: 10px;&quot;&gt;Read Image&lt;/font&gt;" style="text;html=1;strokeColor=none;fillColor=none;align=center;verticalAlign=middle;whiteSpace=wrap;rounded=0;" parent="YH2vRWu-AooAJuFzvjX3-125" vertex="1">
                    <mxGeometry x="200" y="250" width="80" height="20" as="geometry"/>
                </mxCell>
                <mxCell id="YH2vRWu-AooAJuFzvjX3-73" value="" style="rounded=1;whiteSpace=wrap;html=1;fillColor=#f8cecc;strokeColor=#b85450;" parent="YH2vRWu-AooAJuFzvjX3-125" vertex="1">
                    <mxGeometry x="290" y="250" width="80" height="20" as="geometry"/>
                </mxCell>
                <mxCell id="YH2vRWu-AooAJuFzvjX3-79" value="&lt;span style=&quot;font-size: 10px;&quot;&gt;GFTT &amp;amp;&amp;amp; LK&lt;/span&gt;" style="text;html=1;strokeColor=none;fillColor=none;align=center;verticalAlign=middle;whiteSpace=wrap;rounded=0;" parent="YH2vRWu-AooAJuFzvjX3-125" vertex="1">
                    <mxGeometry x="290" y="250" width="80" height="20" as="geometry"/>
                </mxCell>
                <mxCell id="YH2vRWu-AooAJuFzvjX3-74" value="" style="rounded=1;whiteSpace=wrap;html=1;fillColor=#fff2cc;strokeColor=#d6b656;" parent="YH2vRWu-AooAJuFzvjX3-125" vertex="1">
                    <mxGeometry x="380" y="250" width="80" height="20" as="geometry"/>
                </mxCell>
                <mxCell id="YH2vRWu-AooAJuFzvjX3-81" value="&lt;span style=&quot;font-size: 10px;&quot;&gt;Kalman&lt;/span&gt;" style="text;html=1;strokeColor=none;fillColor=none;align=center;verticalAlign=middle;whiteSpace=wrap;rounded=0;" parent="YH2vRWu-AooAJuFzvjX3-125" vertex="1">
                    <mxGeometry x="380" y="250" width="80" height="20" as="geometry"/>
                </mxCell>
                <mxCell id="YH2vRWu-AooAJuFzvjX3-75" value="" style="rounded=1;whiteSpace=wrap;html=1;fillColor=#ffe6cc;strokeColor=#d79b00;" parent="YH2vRWu-AooAJuFzvjX3-125" vertex="1">
                    <mxGeometry x="470" y="250" width="80" height="20" as="geometry"/>
                </mxCell>
                <mxCell id="YH2vRWu-AooAJuFzvjX3-83" value="&lt;span style=&quot;font-size: 10px;&quot;&gt;Apply Affine&lt;/span&gt;" style="text;html=1;strokeColor=none;fillColor=none;align=center;verticalAlign=middle;whiteSpace=wrap;rounded=0;" parent="YH2vRWu-AooAJuFzvjX3-125" vertex="1">
                    <mxGeometry x="470" y="250" width="80" height="20" as="geometry"/>
                </mxCell>
                <mxCell id="YH2vRWu-AooAJuFzvjX3-76" value="" style="rounded=1;whiteSpace=wrap;html=1;fillColor=#e1d5e7;strokeColor=#9673a6;" parent="YH2vRWu-AooAJuFzvjX3-125" vertex="1">
                    <mxGeometry x="560" y="250" width="80" height="20" as="geometry"/>
                </mxCell>
                <mxCell id="YH2vRWu-AooAJuFzvjX3-82" value="Write Image" style="text;html=1;strokeColor=none;fillColor=none;align=center;verticalAlign=middle;whiteSpace=wrap;rounded=0;" parent="YH2vRWu-AooAJuFzvjX3-125" vertex="1">
                    <mxGeometry x="560" y="250" width="80" height="20" as="geometry"/>
                </mxCell>
            </root>
        </mxGraphModel>
    </diagram>
</mxfile>